<svg width="24" height="28" viewBox="0 0 24 28" fill="none" xmlns="http://www.w3.org/2000/svg">
<path d="M1.71427 0H16.2797L24 7.69033V25.7144C24 26.6615 23.232 27.4286 22.2857 27.4286H1.71427C0.76796 27.4286 0 26.6615 0 25.7144V1.71427C0 0.767161 0.768048 0 1.71427 0Z" fill="#E2574C"/>
<path d="M24 7.69855H18.0056C17.0562 7.69855 16.2857 6.93218 16.2857 5.98783V0.017334L24 7.69855Z" fill="#B53629"/>
<path d="M17.5698 12.9968C17.857 12.9968 17.9976 12.7466 17.9976 12.504C17.9976 12.2528 17.851 12.0103 17.5698 12.0103H15.9344C15.6147 12.0103 15.4364 12.2751 15.4364 12.5674V16.5865C15.4364 16.9448 15.6404 17.1437 15.9164 17.1437C16.1907 17.1437 16.3956 16.9448 16.3956 16.5865V15.4834H17.3847C17.6916 15.4834 17.845 15.2322 17.845 14.9828C17.845 14.7386 17.6916 14.4959 17.3847 14.4959H16.3956V12.9968H17.5698ZM12.0421 12.0103H10.8455C10.5206 12.0103 10.29 12.2331 10.29 12.5639V16.59C10.29 17.0005 10.6217 17.1291 10.8592 17.1291H12.1149C13.6012 17.1291 14.5826 16.1512 14.5826 14.6417C14.5818 13.0457 13.6578 12.0103 12.0421 12.0103ZM12.0996 16.1366H11.3701V13.0029H12.0276C13.0227 13.0029 13.4555 13.6706 13.4555 14.592C13.4555 15.4543 13.0304 16.1366 12.0996 16.1366ZM7.71611 12.0103H6.53069C6.19553 12.0103 6.00867 12.2314 6.00867 12.5674V16.5865C6.00867 16.9448 6.22294 17.1437 6.51091 17.1437C6.79889 17.1437 7.01316 16.9448 7.01316 16.5865V15.4131H7.75629C8.67342 15.4131 9.43029 14.7633 9.43029 13.7185C9.43038 12.696 8.70012 12.0103 7.71611 12.0103ZM7.69642 14.4703H7.01325V12.954H7.69642C8.11814 12.954 8.38642 13.2831 8.38642 13.7126C8.38554 14.1412 8.11814 14.4703 7.69642 14.4703Z" fill="white"/>
</svg>
